<svg height="20" viewBox="0 0 39 20" width="39" xmlns="http://www.w3.org/2000/svg"><g fill="#20211f"><path d="m4.056 13.572 2.99-8.112 3.224 8.112zm13.286 5.33c-.702-.052-1.3.078-2.158-2.002 0 0-1.742-4.446-6.526-15.912h-.338l-4.446 11.856c-2.392 6.058-3.042 6.032-3.874 6.058v.39h6.11v-.39c-3.874.156-2.496-3.9-2.132-4.94h6.448l.832 2.08c.312.728 1.118 2.86-.598 2.86v.39h6.682z"/><path d="m26.04 18.174c1.274-1.82.52-4.004-1.82-5.46l-2.626-1.638c-2.262-1.43-1.794-3.64.286-3.64 2.834 0 3.614 2.236 3.874 3.458h.39v-3.042s-1.274-.806-4.264-.806c-2.626 0-3.51 1.404-3.51 1.404-1.248 1.82-.624 3.64 1.898 5.252l2.626 1.586c1.976 1.3 1.976 3.848-.312 3.848-3.224 0-3.952-2.756-4.238-4.134h-.39v3.406s1.482 1.118 4.628 1.118c2.522 0 3.458-1.352 3.458-1.352z"/><path d="m32.762 18.902c-.936-.234-1.066-.962-1.066-2.392v-16.51l-4.056.832v.39c1.066.286 1.3.676 1.3 1.586v13.702c0 1.326-.052 2.106-1.04 2.392v.39h4.862z"/><path d="m35.584 4.914c.858 0 1.586-.676 1.586-1.534s-.728-1.56-1.586-1.56-1.534.702-1.534 1.56.676 1.534 1.534 1.534zm2.704 13.988c-.936-.26-1.066-.962-1.066-2.392v-9.464l-4.056.884v.39c1.066.442 1.326.806 1.326 1.69v6.5c0 1.326-.052 2.08-1.04 2.392v.39h4.836z"/></g></svg>