<?xml version="1.0" encoding="UTF-8"?>
<svg id="Capa_2" data-name="Capa 2" xmlns="http://www.w3.org/2000/svg" viewBox="0 0 61.05 75.57">
  <defs>
    <style>
      .cls-1 {
        fill: #fff;
        stroke-width: 0px;
      }
    </style>
  </defs>
  <g id="Capa_1-2" data-name="Capa 1">
    <g>
      <path class="cls-1" d="M3.59,37.22c2.58,2.5,8.57,6.66,16.63,1.91-6.19-5.87-13.34-3.53-16.63-1.91M11.21,44.18c-.95-.12-1.89-.33-2.83-.63-4.08-1.33-6.86-4.14-7.87-5.29-.4-.45-.57-1.05-.48-1.62s.45-1.09.97-1.39c2.21-1.28,13.68-7.15,22.66,3.18h0c.57.67.45,1.67-.27,2.17h-.01c-4.08,2.88-8.16,4.07-12.18,3.58"/>
      <path class="cls-1" d="M40.83,39.13c8.06,4.75,14.05.59,16.63-1.91-3.3-1.62-10.44-3.96-16.63,1.91M37.67,40.61h-.01c-.71-.51-.84-1.52-.26-2.17h0c8.97-10.34,20.45-4.47,22.65-3.19.52.3.87.81.97,1.39.09.58-.08,1.17-.48,1.63-1.01,1.15-3.79,3.96-7.87,5.28-.94.31-1.89.52-2.83.63-4.01.49-8.1-.7-12.18-3.57"/>
      <path class="cls-1" d="M30.73,3.52c2.42,3.04,6.85,10.47.14,17.9-2.71-2.9-4.08-5.89-4.09-8.92-.01-4.06,2.39-7.31,3.95-8.98M29.82,24.74l.16.15c.51.48,1.3.48,1.8,0l.16-.15c11.22-10.66,2.36-21.86.47-24-.39-.44-.95-.71-1.54-.73-.59-.02-1.18.2-1.61.61-1.68,1.61-5.59,6-5.57,11.9.01,4.28,2.07,8.39,6.13,12.22"/>
      <path class="cls-1" d="M34.54,33.51c.14-.4.28-.79.42-1.17.04-.1.07-.19.11-.29.16-.42.33-.82.5-1.21.03-.08.07-.15.1-.22.15-.34.31-.67.47-.98.04-.08.08-.16.12-.24.18-.36.37-.7.56-1.04.04-.08.09-.15.13-.23.17-.28.34-.56.51-.83.04-.07.08-.13.12-.19.2-.3.4-.59.61-.88.05-.07.11-.15.16-.22.18-.24.36-.47.54-.69.04-.05.08-.1.12-.15.21-.25.42-.49.64-.73.07-.07.13-.14.2-.21.19-.2.37-.39.56-.57.04-.04.08-.08.12-.12.21-.2.43-.4.65-.59.08-.07.15-.13.23-.19.19-.16.38-.31.57-.46.07-.06.14-.11.21-.16.18-.13.36-.26.54-.39.09-.06.17-.12.26-.18.19-.13.38-.25.57-.36.09-.06.19-.11.28-.17.15-.09.3-.17.45-.25.1-.05.19-.11.29-.16.19-.1.38-.19.56-.28.11-.05.21-.1.32-.15.12-.05.24-.11.36-.16.11-.05.22-.09.33-.13.17-.07.35-.14.52-.2,2.83-1.02,5.33-1.1,6.65-1.04-.19,1.49-1.41,4.17-3.86,6.37-1.93,1.74-5.16,3.62-9.95,3.44-.17,0-.33.07-.42.21-.42.65-.83,1.34-1.22,2.09-.16.3.05.67.38.7,6.43.61,10.74-1.87,13.28-4.15,3.36-3.02,5.01-6.95,4.9-9.27v-.08c-.03-1.16-.5-1.9-1.4-2.21l-.27-.07c-.3-.05-7.51-1.1-14.3,3.88-4.68,3.43-7.95,8.81-9.76,16.03-.01-.07-.04-.14-.05-.21-.02.09-.05.18-.07.27-.03-.1-.06-.21-.09-.31h0c-1.81-7.18-5.08-12.54-9.74-15.96-6.79-4.98-14-3.92-14.3-3.88l-.27.07c-.89.31-1.36,1.05-1.4,2.21v.08c-.1,2.32,1.55,6.26,4.9,9.27,2.53,2.28,6.85,4.76,13.27,4.15.34-.03.54-.4.38-.7-.39-.75-.8-1.44-1.22-2.09-.09-.14-.25-.22-.42-.21-4.79.18-8.01-1.7-9.95-3.44-2.45-2.2-3.67-4.89-3.86-6.37,1.32-.06,3.82.02,6.65,1.04.17.06.34.13.52.2.11.04.22.09.33.14.12.05.24.1.36.15.11.05.21.1.32.15.19.09.38.18.56.28.1.05.2.1.29.16.15.08.3.17.45.25.09.05.19.11.28.17.19.12.38.24.57.37.09.06.17.12.26.18.18.12.36.25.54.39.07.05.14.11.21.16.19.15.38.3.57.46.08.07.15.13.23.2.22.19.43.38.65.58.04.04.08.08.12.12.19.18.38.37.56.57.07.07.13.14.2.21.21.23.43.47.64.73.04.05.08.1.12.15.18.22.36.45.54.69.06.08.11.15.16.22.21.28.41.57.61.88.04.06.08.13.12.19.17.27.34.54.51.83.04.07.09.15.13.23.19.33.38.68.56,1.04.04.08.08.16.12.24.16.32.32.65.47.99.03.08.07.15.1.22.17.39.34.8.5,1.21.04.09.07.19.11.29.15.38.28.77.42,1.17.02.07.05.13.07.2.15.45.29.92.43,1.4.03.11.06.23.1.34.13.46.25.92.36,1.41.01.05.02.09.04.14.12.52.23,1.06.34,1.61.03.13.05.26.08.4.08.45.16.91.24,1.38.03.22.07.44.1.66.06.43.12.86.17,1.3.02.16.04.33.06.49.2,1.77.33,3.64.39,5.6v8.42s-.03,18.92-.03,18.92h3.17l-.04-17.35s0-.05,0-.08v-7.18s.01-2.55.01-2.55c.08-2.75.3-5.33.66-7.69.09-.59.19-1.17.3-1.73.03-.13.05-.27.08-.4.11-.55.22-1.08.34-1.6.01-.05.02-.09.03-.14.11-.48.24-.95.36-1.41.03-.11.06-.23.1-.34.14-.48.28-.95.43-1.4.02-.07.05-.13.07-.2"/>
      <path class="cls-1" d="M37.14,75.57h-3.01v-18.56c0-2.79,1.15-5.26,3.34-7.14,2.77-2.38,7.03-3.54,10.84-2.95,5.88.9,8.99,5.36,9.87,8.89.17.67-.15,1.38-.77,1.7-.09.05-9.43,4.76-17.21-3.29l2.16-2.09c4.75,4.91,10.14,3.94,12.48,3.18-1-2.35-3.25-4.84-7-5.42-2.94-.45-6.32.46-8.42,2.26-1.52,1.3-2.29,2.94-2.29,4.86v18.56Z"/>
      <path class="cls-1" d="M26.91,75.57h-3.01v-18.56c0-1.92-.77-3.55-2.29-4.86-2.1-1.8-5.48-2.71-8.42-2.26-3.76.58-6.01,3.07-7,5.42,2.33.78,7.7,1.77,12.48-3.19l2.16,2.09c-7.77,8.05-17.11,3.34-17.21,3.29-.62-.32-.93-1.02-.77-1.7.88-3.54,4-7.99,9.87-8.89,3.81-.59,8.07.57,10.84,2.95,2.19,1.88,3.34,4.35,3.34,7.14v18.56Z"/>
    </g>
  </g>
</svg>