<svg height="492" viewBox="0 0 489 492" width="489" xmlns="http://www.w3.org/2000/svg"><path d="m.5 491.5c135.31 0 245-109.69 245-245s-109.69-245-245-245v-1c135.862 0 246 110.138 246 246s-110.138 246-246 246z" fill="#0f5e79" fill-rule="evenodd" transform="translate(-.5 -.5)"/><circle cx="9" cy="9" fill="#0f5e79" r="9" transform="matrix(-1 0 0 -1 100.5 483.5)"/><text font-family="HelveticaNeue, Helvetica Neue" font-size="20" transform="translate(118 482)"><tspan x="0" y="0">Información consolidada</tspan></text><circle cx="9" cy="9" fill="#0f5e79" r="9" transform="matrix(-1 0 0 -1 201.5 408.5)"/><text font-family="HelveticaNeue, Helvetica Neue" font-size="20" transform="translate(218 407)"><tspan x="0" y="0">Gobierno familiar</tspan></text><circle cx="9" cy="9" fill="#0f5e79" r="9" transform="matrix(-1 0 0 -1 242.5 336.5)"/><text font-family="HelveticaNeue, Helvetica Neue" font-size="20" transform="translate(259 335)"><tspan x="0" y="0">Directorio familiar</tspan></text><circle cx="9" cy="9" fill="#0f5e79" r="9" transform="matrix(-1 0 0 -1 253.5 256.5)"/><text font-family="HelveticaNeue, Helvetica Neue" font-size="20" transform="translate(271 255)"><tspan x="0" y="0">Gestión legal y tributaria</tspan></text><circle cx="9" cy="9" fill="#0f5e79" r="9" transform="matrix(-1 0 0 -1 244.5 181.5)"/><text font-family="HelveticaNeue, Helvetica Neue" font-size="20" transform="translate(259 180)"><tspan x="0" y="0">Asesorías en inversiones</tspan></text><circle cx="9" cy="9" fill="#0f5e79" r="9" transform="matrix(-1 0 0 -1 203.5 106.5)"/><text font-family="HelveticaNeue, Helvetica Neue" font-size="20" transform="translate(222 105)"><tspan x="0" y="0">Asesorías financieras</tspan></text><circle cx="9" cy="9" fill="#0f5e79" r="9" transform="matrix(-1 0 0 -1 101.5 27.5)"/><text font-family="HelveticaNeue, Helvetica Neue" font-size="20" transform="translate(122 26)"><tspan x="0" y="0">Planificación familiar</tspan></text></svg>