<svg width="206" height="122" viewBox="0 0 206 122" fill="none" xmlns="http://www.w3.org/2000/svg">
<path d="M118.026 3.70206V11.833H121.727V0H110.148V3.70206H118.026Z" fill="black"/>
<path d="M3.70045 3.70206H12.0775V0H0V11.833H3.70045V3.70206Z" fill="black"/>
<path d="M3.70045 118.08V109.949H0V121.782H12.0775V118.08H3.70045Z" fill="black"/>
<path d="M118.026 118.08H110.148V121.782H121.727V109.949H118.026V118.08Z" fill="black"/>
<path d="M15.8951 49.2857H15.8043L10.4466 41.2456V53.5101H7.47266V36.3398H10.6737L15.8951 44.448L21.1166 36.3398H24.3176V53.5101H21.2982V41.2002L15.8724 49.2857H15.8951Z" fill="#231F20"/>
<path d="M33.1483 36.3398V53.5101H30.1289V36.3398H33.1483Z" fill="#231F20"/>
<path d="M49.9754 53.4872L45.7528 47.5139H41.9842V53.4872H38.9648V36.3169H46.6155C50.5656 36.3169 52.9948 38.4064 52.9948 41.7678C52.9948 44.6068 51.3148 46.3329 48.9084 46.9915L53.5396 53.4872H49.9754ZM46.3657 39.065H41.9842V44.8339H46.3884C48.5451 44.8339 49.9073 43.6983 49.9073 41.9495C49.9073 40.0644 48.5905 39.0878 46.3657 39.0878V39.065Z" fill="#231F20"/>
<path d="M74.3307 53.4875H71.1524L69.4043 49.3539H61.2997L59.5289 53.4875H56.4414L63.9785 36.2036H66.7709L74.308 53.4875H74.3307ZM65.3406 39.8148L62.3894 46.6738H68.2919L65.3179 39.8148H65.3406Z" fill="#231F20"/>
<path d="M84.9098 53.4872H78.5078V36.3169H84.9098C90.2902 36.3169 94.0361 40.019 94.0361 44.8793C94.0361 49.7397 90.3129 53.4872 84.9098 53.4872ZM84.9098 39.065H81.5272V50.739H84.9098C88.5194 50.739 90.8578 48.3088 90.8578 44.9247C90.8578 41.5407 88.4967 39.065 84.9098 39.065Z" fill="#231F20"/>
<path d="M114.151 53.4875H110.973L109.225 49.3539H101.12L99.3492 53.4875H96.2617L103.799 36.2036H106.591L114.128 53.4875H114.151ZM105.161 39.8148L102.21 46.6738H108.112L105.138 39.8148H105.161Z" fill="#231F20"/>
<path d="M91.221 71.1124H81.5272V75.5639H90.1313V78.2667H81.5272V82.8772H91.3572V85.5799H78.5078V68.4097H91.221V71.1124Z" fill="#231F20"/>
<path d="M107.36 85.5797L102.843 79.0841L98.3023 85.5797H94.8516L101.095 76.8583L95.1013 68.4321H98.6655L102.934 74.5871L107.224 68.4321H110.675L104.704 76.8129L110.925 85.5797H107.383H107.36Z" fill="#231F20"/>
<path d="M122.526 85.5799H119.484V71.2032H114.035V68.4097H127.952V71.2032H122.503V85.5799H122.526Z" fill="#231F20"/>
<path d="M145.092 71.1124H135.398V75.5639H144.002V78.2667H135.398V82.8772H145.228V85.5799H132.379V68.4097H145.092V71.1124Z" fill="#231F20"/>
<path d="M161.03 85.5799L156.807 79.6067H153.039V85.5799H150.02V68.4097H157.67C161.62 68.4097 164.049 70.4992 164.049 73.8605C164.049 76.6995 162.369 78.4257 159.963 79.0843L164.594 85.5799H161.03ZM157.42 71.1578H153.039V76.9267H157.443C159.6 76.9267 160.962 75.7911 160.962 74.0422C160.962 72.1571 159.645 71.1805 157.42 71.1805V71.1578Z" fill="#231F20"/>
<path d="M180.959 68.4092H183.933V85.5795H181.413L171.947 73.3604V85.5795H168.973V68.4092H171.765L180.959 80.2648V68.4092Z" fill="#231F20"/>
<path d="M206.006 85.5797H202.828L201.08 81.4462H192.975L191.205 85.5797H188.117L195.654 68.2959H198.447L205.984 85.5797H206.006ZM197.016 71.9071L194.065 78.7661H199.968L196.994 71.9071H197.016Z" fill="#231F20"/>
</svg>
