<svg enable-background="new 0 0 52 52" viewBox="0 0 52 52" xmlns="http://www.w3.org/2000/svg"><path d="m26 0c-14.336 0-26 11.663-26 26s11.664 26 26 26 26-11.663 26-26-11.664-26-26-26zm0 50c-13.233 0-24-10.767-24-24s10.767-24 24-24 24 10.767 24 24-10.767 24-24 24z"/><path d="m38.252 15.336-15.369 17.29-9.259-7.407c-.43-.345-1.061-.274-1.405.156-.345.432-.275 1.061.156 1.406l10 8c.184.147.405.219.625.219.276 0 .551-.114.748-.336l16-18c.367-.412.33-1.045-.083-1.411-.414-.368-1.045-.331-1.413.083z"/></svg>